<svg xmlns="http://www.w3.org/2000/svg" width="666.667" height="666.667" viewBox="0 0 500 500"><path d="M234.5 57.5c-6 1.3-27.2 5.5-47 9.4l-70.2 13.6L83 87.2l-3 4.6c-5.7 8.6-7.3 14.5-6.8 25.8.6 12.8 2.3 16.5 10 21.8 5 3.4 5.6 4.2 4.7 5.9-.8 1.4-1.8 1.8-4.2 1.4-6-.9-12.7 5.7-12.7 12.5 0 4.9-1.1 6.5-5 7.7-10.6 3.2-15.4 25.3-9.4 42.8 2.4 6.9 2.5 8.1 1.5 13.1-1.4 7-1.4 16.7 0 23.2.9 4.1 2.6 6.9 8.5 14.1L74 269l-1.5 3c-1.8 3.5-5.2 4.6-9.4 3.2-2.5-.9-3.2-.7-5.5 1.7-1.4 1.5-3.6 5.4-4.8 8.7-2.8 7.7-3.1 23.4-.5 31 2 5.7-8.3-1.9 81.2 60.4l71.5 49.8c15.1 10.6 28.2 19.2 29.1 19.2s6.4-2 12.1-4.4l29.8-12.4 60.5-25 53.7-22.2c17.4-7.1 17.6-8.4 3.6-18.5-8-5.8-8.3-6.2-8.6-10.3-.3-4 0-4.7 5.2-9.9 3.1-3.2 5.6-6.5 5.6-7.4 0-1 1.4-2.7 3.1-3.9 5.6-4.1 4.2-5.6-13.9-14.8-16.1-8.2-16.2-8.3-14.7-10.5.8-1.2 3-2.7 4.8-3.3 2.3-.8 3.2-1.7 3.1-3.2 0-1.8 1.6-2.5 12.5-5.7l15.1-4.4c1.9-.6 2.5-1.5 2.5-3.6 0-2.4-1.1-3.5-8.9-8.3l-8.9-5.5.6-5.7c.4-4.4 1.5-7.5 4.7-12.9 2.3-3.9 4.7-7.1 5.4-7.1 3.2 0 8.4-2.2 8.9-3.8.3-1.2 5.9-3.7 17.6-8.2 19.1-7.2 20-8.1 13.1-12.6-2.2-1.5-4-2.8-4-2.9 0-.2 1.3-2.8 2.9-5.9 1.6-3 3.3-8 3.6-11 .6-4.9 1-5.6 3.6-6.5 3.1-1.1 3.6-2.6 1.6-5.1-.7-.9-6.8-3.9-13.7-6.7l-12.5-5-.3-4.1c-.6-8.6 2.7-14.5 13.1-22.9 3.1-2.6 3.5-6.3 1-8.5-1-.8-42.8-21.1-92.8-45.1-69-33.1-91.9-43.7-94.5-43.6-1.9 0-8.4 1.1-14.5 2.4m80.9 34.2 87.6 42.6 22.5 11-88.5 22.1-88.5 22.2-3.7 5.9c-2.1 3.2-4.6 8.2-5.5 11.2-.9 2.9-1.9 5.3-2.3 5.3-.3 0-.5 1.3-.4 3s-.3 3-.9 3c-.7 0-.6.4.2.9s1.1 1.6.8 2.5c-.4.9-.3 1.6.2 1.6 1.3 0 1.9 6 .7 6.1-.6 0-.5.3.2.6 1.9.7 1.4 2.3-.5 1.7-1.4-.4-1.3-.2.2.7 2.5 1.5 3.5 2.9 3.5 4.9-.1 1.2-.3 1.1-1.1-.3-.5-.9-1.8-1.7-2.8-1.7-2.2 0-4.4-2.3-3.3-3.5.4-.5 0-.6-.8-.3-2.1.8-4.2-1.6-2.7-3.1 1.8-1.8-.6-3.6-3-2.2-1.6 1.1-1.6 1.1.5.6 1.2-.4 2.2-.2 2.2.3 0 1.7-2.9 2.2-4.4.7-.8-.8-2-1.5-2.6-1.5s-.8-.5-.4-1.2c.5-.8.2-.9-.9-.5-.9.3-2 .1-2.4-.6-.5-.7-2-1.8-3.5-2.6-1.6-.8-2.6-1.7-2.3-1.9.3-.3-1.3-1.3-3.5-2.3s-4-2.3-4-2.9c0-.5-.6-.9-1.2-.7-.8.1-1.3-.7-1.2-2 0-1.8-.2-2-1.3-1.1s-1.6.9-2.2-.1c-.5-.7-1.2-1.2-1.7-1.1-.4.1-1.1-.7-1.5-1.7s-.8-1.2-.8-.5c-.1.7-.6 1-1.1.7-.6-.4-.8-1.6-.4-2.8.6-2.2.6-2.2-1-.2-.8 1.1-1.6 1.4-1.6.7 0-.6-.7-1.2-1.5-1.2-2.1 0-3.1-3-1.4-4 .9-.6.5-1.1-1.4-1.6-1.6-.3-3.1-.4-3.4 0-.4.3.4.6 1.6.6s2 .4 1.6 1c-.6 1-3.5.3-5-1.4-.5-.6-2.2-1.7-3.7-2.3-1.6-.7-2.8-1.7-2.8-2.3s-.4-.9-.9-.6-1.5-.1-2.2-1c-1-1.3-1-1.7.2-2.5.8-.5.9-.9.3-.9-.5 0-1.4.4-2 1-.9.9-8.4-3.3-9.2-5.3-.2-.4-.9-.7-1.5-.7-.7 0-2.4-1-3.9-2.3-1.4-1.2-4.7-3.4-7.2-4.9-2.7-1.6-4.6-3.5-4.6-4.5 0-1.1-.3-1.4-.8-.7-.5.8-3.1-.4-7.9-3.6-4-2.5-7-5-6.6-5.3.3-.4-.1-.7-1-.7-2.2 0-8.6-4.2-8.7-5.7 0-.6-.5-1.5-1.2-1.9s-.8-.3-.4.4c1 1.6 0 1.5-2.9-.4-1.4-.9-2.2-2-1.9-2.5s-.1-.7-.8-.4c-1.7.6-4-1.3-5.6-4.5-.7-1.4-1-1.7-.8-.8.7 2.3 0 2.3-3.5-.3-2.3-1.6-2.7-2.4-1.9-3.5 1.3-1.5.5-3.4-1.3-3.4-.7 0-.6.4.3 1 1.3.9 1.3 1.1 0 1.9-.9.7-1.7.6-2.1 0-.3-.6-1-1.1-1.5-1.2s-.8-.8-.6-1.7c.2-1.3.2-1.3-.8 0-.7 1-1.2 1.1-1.7.4-.5-.6-1.6-1.3-2.6-1.7-1.1-.4-1.5-1.2-1.1-1.9.5-.8.2-.9-.9-.5-1 .3-1.7.2-1.7-.3 0-.6-.7-1-1.5-1s-1.5-.6-1.5-1.4-.5-1.6-1.1-1.8c-.7-.2-1.2-2.6-1.3-5.5 0-2.8-.5-4.9-1-4.6-.5.4-.7-2.9-.4-7.5.4-6.2 1.1-9.3 3.4-13.9l2.9-5.8 25.5-5.2 137.9-28.2c.2-.1 29.7 14.2 65.5 31.6m-208.5 63.9 10.6 7.6c.5.4-4.2-1.4-10.5-4.2-6.3-2.7-12.1-5-12.7-5-1.6 0-1.6-.6-.3-3.1.6-1 1.6-1.9 2.1-1.9.6 0 5.5 3 10.8 6.6m-10.2 1.2c1.5 1.1 12.9 7 25.3 13.2 20.8 10.5 25.8 13.5 66.9 41.4l49.6 33.7c5.3 3.6 9 5.5 8.1 4.1-.2-.4 5.3-2.2 12.2-4 10.5-2.8 13.2-3.1 15.6-2.2 2.5.9 2.7.9 1.6-.5-1-1.2-1-1.6.1-1.9 4.3-1.5 82.3-21.6 82.5-21.3.2.2-15.9 5.9-35.9 12.7-39.9 13.7-41.3 14.4-43.8 23.3-.7 2.3-1.9 4.8-2.8 5.4-1 .9-1.1 1.3-.2 1.3.7 0 .9.5.6 1-.4.6-.2 1.7.4 2.3.5.7 1 2.2.9 3.2 0 1.1.2 3.3.6 5 .3 1.6.3 2.4 0 1.7-.3-.6-1.2-1.2-2-1.2-1.7 0-1.9-1.7-.1-2.3q1.35-.6 0-.6c-.6-.1-1.5.4-1.9 1-.4.8-1.2.3-2.1-1.2-.8-1.3-1.2-1.6-.9-.7.6 2 .5 2.1-1.8 1.2-.9-.3-1.6-1.4-1.7-2.3 0-.9-.3-1.1-.5-.4-.3.7-1.2.9-2 .6-.7-.3-1.1-1-.7-1.6s0-.8-1-.4c-1 .3-1.7.2-1.7-.3 0-.6-.7-1-1.5-1-1.6 0-11.5-4.9-11.5-5.7 0-.2 1-.1 2.3.2 1.7.5 1.9.4.7-.4-.8-.6-2.4-.8-3.6-.5-2.3.6-8.8-2.8-7.7-4 .4-.4-.1-.4-1.1 0s-2.1.2-2.5-.4c-.3-.6-2.9-1.9-5.6-3-2.8-1-4.9-2.3-4.8-2.9s-1-1.1-2.4-1.1c-1.5 0-2.9-.5-3.1-1.1s-.8-.8-1.4-.5c-.5.4-.2-.6.8-2.1 1.8-2.8 2.7-8.8 1.2-7.9-.5.4-.7 1.2-.4 2 1.3 3.4-3.2 8.2-4.9 5.3-.4-.5-1.2-.8-1.8-.6-1.4.6-9.9-4.1-11-6-.4-.7-1.3-1.3-2-1.3s-.6.4.3 1c1.7 1.1 1 1.3-1.4.4-.9-.3-1.3-1-1-1.6.3-.5 0-.8-.7-.6-2.2.4-7.9-2.5-7.9-4.1 0-.8-.6-1.1-1.5-.7-.8.3-1.5.1-1.5-.4s-.7-.6-1.7-.3c-1 .4-1.4.2-1-.4s.1-1-.6-.9c-.6 0-1.2-.4-1.2-.9 0-1.1.9-1.1 4 0 1.1.3.8-.1-.8-1-2-1.2-3.2-1.3-4.6-.5-2.1 1.1-7.1-.5-7.1-2.2 0-.4-.6-.8-1.3-.8-2.2 0-14.1-6.2-16-8.4-1.4-1.5-1.5-2.1-.5-2.8.7-.4.9-.8.3-.8-.5 0-1.7.5-2.5 1-1 .6-1.1 1-.2 1 .6 0 1.2.4 1.2 1 0 1.6-3-.1-3.1-1.9 0-1-.2-1.1-.6-.4-.3 1-1.1.9-3.4-.2-1.6-.9-2.9-2-2.9-2.5 0-.6-.3-.9-.7-.8-1.7.5-8.3-2.4-7.7-3.3.3-.6 0-1-.7-.9-2.1.3-5.9-1.1-5.9-2.1 0-.5.5-.9 1.2-.9.6 0 .8-.3.5-.6-.4-.4-1.3-.1-2.2.6-1.1.9-1.5.9-1.5.1 0-.7-.4-1-.8-.7-.5.3-1.8-.3-2.9-1.4-1.2-1-2.3-1.6-2.6-1.3s-1.2.1-1.9-.3c-1.3-.9-1.8-1-3.8-1.3-.5 0-.9-1.1-.7-2.2.1-1.2-.4-2.3-1.1-2.5-.7-.1-.8 0-.2.3 1.5.7 1.2 2.3-.5 2.3-.8 0-1.5-.8-1.5-1.8 0-1.4-.2-1.5-1-.2-.8 1.2-1 1.2-1-.5s-.2-1.7-1-.5c-.7 1.1-1 1.1-1 .2 0-.7-.6-1.2-1.2-1.1-2.4.3-7.8-2.5-7.8-4.1 0-1.2-.2-1.3-.9-.1-.7 1.1-1.1.9-2.1-.9s-.9-2.4.1-3.1c1.6-1 .8-1.2-1.5-.3-1.3.5-1.4.9-.5 2 .8 1 .8 1.4.1 1.4-.6 0-1.6-.9-2.2-2s-1.6-2-2.3-2c-.8 0-.7.4.3 1.1 1.8 1.2.6.9-3.5-1.1-1.6-.8-3.3-1.9-3.7-2.5-.4-.5-.8-.6-.8-.2 0 1.2-2.5-1.4-3.7-3.8-2.5-5.1-.7-17.3 2.9-19.6 2.1-1.4 11.7-.1 14.5 1.9m319.9 5.4c-.9 1.2-1.6 3-1.6 4 0 1.2-1.1 1.9-3.7 2.4-25.1 4.3-123.3 27.1-132.8 30.9l-4 1.5 4-.5c5.4-.8 35.5-7.5 90-20.1l45.1-10.1c.6.6 2.1 16.3 1.5 16.8-.7.7-156.8 39.8-160.3 40.2-1.4.1-2.3-.4-2.6-1.4-.2-1.3.9-1.8 5.5-2.3 9.3-1.1 46.1-11.2 44.9-12.3-.2-.3-11.7 2.3-25.6 5.6l-25.5 6.1c-2 0 1-15.6 3.7-19.3.9-1.2 11.8-4.5 36.3-10.8l80-20.9 45.8-11.9c.5-.1.1.9-.7 2.1M71.7 178.3c1.1 3.9 1.7 4.5 7.9 7.5 3.8 1.9 11.3 6.9 16.8 11.1 24.7 19.1 102.9 74.7 110.1 78.3l4 2-2.5-2.7c-5.3-5.7-59-48.1-76-59.9-4.7-3.3-8.9-6.4-9.5-6.9-.5-.5 27.5 13.4 62.2 30.9l63.3 32.5c0 .3-7.1 2.1-15.7 3.9-8.7 1.8-16.6 3.7-17.5 4.1-3.1 1.6-6.9 11.2-7.7 19.6-.5 4.3-.7 8.6-.5 9.6.2 1.4-.2 1.7-1.9 1.3-1.4-.4-1.1-.1.7.8l2.9 1.3-2.9 1.2-2.9 1.1 2.8-.5c2.8-.6 3.3.5 2.9 5.8-.1 1 .3 1.5.8 1.2.6-.3 1 .1 1 1 0 1.4-.3 1.4-3 0-1.6-.9-3-2.1-3-2.7s-.3-.9-.6-.5c-.8.8-4.4-2.5-3.8-3.5.3-.4-.1-.5-.9-.2-.9.3-2.1-.4-2.9-1.5-.8-1.2-1.7-1.9-2-1.6s-2.8-1.7-5.6-4.4c-2.9-2.8-5.2-4.7-5.2-4.4 0 .4-.7-.2-1.6-1.3-.8-1-1.3-1.2-.9-.4.4 1 .2.9-.8-.3-.8-.9-1.8-1.7-2.2-1.7-1.3 0-7-5.3-6.7-6.2.1-.5-.1-.7-.6-.4-.4.3-2.6-1.1-4.7-3s-4.2-3.4-4.7-3.4-2.2-1.4-3.8-3c-1.7-1.7-3-2.8-3-2.5s-.6.1-1.2-.5c-.7-.6-2.2-1.8-3.3-2.6-1.1-.9-1.5-1.3-.9-1s1.1-.1 1.1-.8c0-.8-.8-1.1-1.9-.8-2.3.6-6.1-2.7-5.3-4.6.4-1.2.3-1.2-.9-.3-1.2 1-1.4.7-1.2-2.3.2-2-.1-3.3-.6-3s-.6 1.4-.3 2.5c.7 2.3-.4 2.4-3.1.5-1-.8-1.5-1.8-1.1-2.2.4-.5 1.3-.2 1.8.6.9 1.2 1 1.2.5-.3-.3-.9 0-1.7.6-1.7s.9-.3.6-.6c-.4-.3-1.6 0-2.8.6-1.8 1-2.4.9-3.1-.1-.5-.8-.9-1-.9-.5s-.7.3-1.5-.4c-.9-.7-1.3-2-1-2.9.3-1-.2-2.6-1.1-3.7-1.5-1.8-1.5-1.8-.5.3 1.4 2.8 1.4 3.3 0 3.3-1.7 0-10.9-7.2-10.9-8.5 0-.5.5-.3 1.1.5.8 1.2 1 1.2.7.1-.2-.8-1.4-1.5-2.7-1.6s-2.6-.6-2.9-1.2c-.4-.5-1.5-1.2-2.4-1.6-1-.3-1.8-1.3-1.8-2.2a1.54 1.54 0 0 0-1.5-1.5c-.8 0-2.3-.8-3.3-1.8-1-.9-3.2-2.4-4.8-3.4-1.6-.9-3.8-3.2-4.8-5.2-1.1-2-2.2-3.4-2.4-3.1-.3.2.1 1.1.8 2 2.2 2.7-.4 1.6-4.2-1.8-4-3.5-4.9-5-2.2-4 1.4.5 1.4.3-.1-1.5-1.5-1.7-4.5-2.1-4.5-.5 0 .3.7.3 1.5-.1 1.6-.6 2.1.9.6 1.9-.5.3-1.7-.5-2.5-1.7-.9-1.2-1.6-1.9-1.6-1.4s-.8-.1-1.9-1.2c-1-1.2-2.3-2.2-2.9-2.2s-1.7-.9-2.5-2-1.6-1.7-2-1.4c-1.1 1.2-6.7-7.9-6.1-9.9.4-1.3.2-1.7-.5-1.3s-1.1-.1-1.1-1.3c0-2.5 2-3.8 3.1-2 .6 1 .8.8.6-.8-.1-1.7-.5-2-1.8-1.2-2.4 1.3-2.9 1.1-2.9-.7 0-.8.5-1.2 1.1-.9.6.4.5-.2-.2-1.3-1-1.6-1-3.1 0-7.7 1.7-7.4 5.1-15.5 6.5-15.5.7 0 1.7 1.9 2.3 4.3m179.1 23.3c-1.8 3.2-3.8 7.9-4.4 10.4-.7 2.5-1.3 3.5-1.3 2.4-.1-2.9 2.4-9.9 5.5-15.2 3.8-6.4 3.9-4.5.2 2.4m187.2 3.5c0 1.9-4.2 8.9-8.7 14.6-1.3 1.6-11.2 5.6-34.3 13.9l-65.9 23.5c-25.8 9.3-33.6 11.7-34.7 10.8-.7-.6-1.8-2.8-2.4-4.8-1.2-4.3-1.2-5.2-.2-6.8.4-.7 32.9-12.8 72.2-26.8l71.9-26c1.1-1.1 2.1-.3 2.1 1.6m-192.3 18.6c-.3 1-.5.4-.5-1.2 0-1.7.2-2.4.5-1.8.2.7.2 2.1 0 3M68 226.5c0-.5 1.1.1 2.5 1.5 3.2 3.3 4.7 4.5 6.5 5.2.8.3 8.5 5.9 17 12.4l25.4 19.4c8.8 6.6 29.1 27.3 49.3 49.9 4.7 5.4 11.2 10.6 12 9.7 1-1-10.5-15.1-22.6-28-3.1-3.2-4.9-5.5-4-5 .8.5 10.7 7.9 21.9 16.4l20.3 15.5-4.2.6c-2.5.3-4.7 1.3-5.3 2.2-.6 1.2-2.2 1.7-5.3 1.7-3.9 0-4.7.5-8.3 4.6-3.8 4.2-8.2 14.2-8.2 18.4 0 1-.9 2.1-1.9 2.6-1.8.8-1.8 1-.3 2.4 1.4 1.3 1.5 1.2.9-.3-.3-.9-.2-1.7.3-1.7.9 0 1.4 4.1 1.3 8.7-.1.7.3 1.3.7 1.3s1 .8 1.3 1.7c.2 1 .8 2.7 1.2 3.8.6 1.5.3 1.4-1.1-.5-1-1.4-2.9-3.5-4.2-4.6-1.4-1.2-2.1-2.7-1.8-3.3.4-.6.4-1-.1-.9-1.1.4-5.3-3.4-5.3-4.7 0-.5.5-.3 1.1.5.9 1.3 1 1.3.6-.2-.3-.9-.1-1.9.6-2.2s0-.3-1.4 0c-2.1.4-3.1-.1-5.2-2.9-1.5-2-3.4-4.2-4.3-5.1-.8-.9-1.2-1.6-.9-1.6.4 0-.3-.9-1.6-2-2.1-1.7-2.2-2.1-.9-3 1.3-.8 1.3-1-.2-1-2.2 0-5.8-3-5.8-4.8 0-.7-.4-1-1-.7-.6.4-.7-.1-.3-1.1.4-1.1.2-1.5-.4-1.1s-2.3-.9-3.7-2.8c-1.5-1.9-2.3-3.5-1.9-3.6.4 0-.2-.4-1.4-.9-1.3-.6-2.3-1.8-2.3-3 0-1.1-.3-1.9-.8-1.7-.4.1-.9-.2-1.2-.7s-2.3-2.8-4.5-5.1c-6.3-6.6-7.6-8.3-6.3-9.1.5-.4 1.5 0 2 .7.8 1.2.9 1.1.5-.1-.2-.8-1.2-1.4-2.2-1.3s-3.1-1.2-4.7-2.8c-1.8-1.7-2.4-2.9-1.6-3 .9 0 .9-.2-.2-.6-2.8-1.1-4.9-3.5-4.3-5.1.4-1 .2-1.4-.2-.9-1 .8-10.5-9.2-10.5-11.1 0-.6-.5-1.2-1.1-1.2-.5 0-.8-.3-.6-.8.3-.4-.1-1.3-.9-2s-1.4-1-1.4-.7c0 .4-1.1-.7-2.5-2.3-1.4-1.7-2.5-3.5-2.5-4.2 0-.6-.4-.8-1-.5-.6.4-.7-.1-.3-1.1.3-1 .2-1.5-.3-1.2s-1.5 0-2.2-.8-1.1-1.4-.8-1.4-1-1.5-2.8-3.3c-2.8-2.6-3.3-3.8-3-6.5s.1-3-1-2c-1 .9-1.1 1.5-.3 2 .6.4.9 1 .5 1.3-.3.3-1.6-.9-2.9-2.7s-2.7-3.5-3.1-3.6c-.4-.2-.8-1.1-.8-2 0-1.5.2-1.5 1-.2.7 1.2.9 1 .8-.7-.1-1.1-.7-1.9-1.3-1.7-.7.3-1.1-2.2-1.2-7.6 0-7.1.1-8 1.6-7.5 1.3.5 1.4.4.4-.6-.7-.7-1.3-1.8-1.3-2.4 0-.5.5-.3 1 .5s1 1.1 1 .5m178.7 1.7c-.3.8-.6.5-.6-.6-.1-1.1.2-1.7.5-1.3.3.3.4 1.2.1 1.9m1 4c-.3.8-.6.5-.6-.6-.1-1.1.2-1.7.5-1.3.3.3.4 1.2.1 1.9m1 4c-.3.8-.6.5-.6-.6-.1-1.1.2-1.7.5-1.3.3.3.4 1.2.1 1.9m136.9 24.5c-1.2 3.6-1.3 3.6-11.2 5.9-11 2.4-22.6 5.8-25.2 7.4-2.6 1.4-1.3 1.2 12-2 6.7-1.7 14.6-3 17.5-3 4.8 0 5.3.2 5.3 2.3 0 2.4.1 2.4-79.1 21.6-15.7 3.8-30.1 7.7-32 8.5l-3.4 1.6 5-.6c2.8-.3 17.2-3.6 32-7.4l76.3-18c.6 0 1.2.6 1.2 1.3 0 .8-15.5 5.5-45.7 13.7L261 313c-17.3 4.8-32 8.5-32.5 8.3-2.5-.9-3.9-5.3-4.3-13.8-.6-13-1.6-12.3 26.7-18.9l23.5-5.4 4 2c2.3 1.2 3.7 2.3 3.1 2.4-.5.2-10.9 3-23 6.3-25.5 6.9-31.7 8.9-29.2 9 2.6.1 75.8-18.8 102.5-26.5 8.4-2.5 5.3-2.7-4.3-.4-4.9 1.1-9 1.9-9.1 1.7-1.1-1.1 32.7-12.6 47.6-16.3 22.3-5.4 21.2-5.3 19.6-.7m-94.5 9.9c.6.8.9 1.7.7 2-.9.9-4.8-6.1-5.3-9.7-.5-2.9-.3-2.7 1.4 1.4 1.1 2.7 2.5 5.5 3.2 6.3M88 285.7c9.6 11.3 9.6 11.3.4 6.6-4.7-2.5-9-4.3-9.7-4-.7.2 5.3 4.7 13.3 9.9l14.6 9.5 22.2 26.1 22.2 26.8c0 .3 1.8 2.4 4 4.6s3.7 4.5 3.4 4.9c-.3.5.2.9 1 .9 1 0 1.3.6.9 1.7-.4 1-.2 1.4.4 1 1.6-1 5.4 3.7 4.7 5.9-.5 1.6-.4 1.6.5.4 1-1.3 1.4-1.1 3.1 1 1.1 1.4 2.2 3.2 2.5 4.1.4 1.2 1.3 1.5 2.7 1.1 1.5-.3 1.9-.2 1.4.7-.6.8-.1 1 1.8.5 1.8-.4 2.6-.2 2.6.7 0 1.2.2 1.2.9.1.4-.8 1.4-1.2 2.2-1.1s2.1-.1 2.9-.4c.8-.4 10.1-2.7 20.5-5.2l19-4.6 4.7 2.2c5.1 2.4 7.7 1.9 4-.7-1.2-.8-2.2-1.9-2.2-2.3s2.6-1.3 5.8-2l37.2-8.7c28.2-6.6 36.6-8.4 32-6.7-39.4 14.7-61.8 23.8-63.1 25.6-1.6 1.9-2 2-5.7.8-2.1-.7-4.9-1-6.1-.6-2.5.7-6.2 7.6-8.5 15.5-1.9 6.4-2.6 20-1.1 20 .5 0 .3.5-.5 1-1 .6-1.1 1-.2 1 .6 0 1.2.4 1.2 1 0 2-3.1.9-9.4-3.5-4.8-3.4-6.4-5-6-6.3.5-1.4.4-1.5-.5-.2-.8 1-1.3 1.2-1.8.4-.5-.6-1.5-1.3-2.3-1.6-1.7-.5-2.2-5.9-.6-7.1.7-.5.5-.7-.4-.4-.8.2-1.5 1.3-1.5 2.4 0 1.2-.3 2.5-.7 2.9-.5.4-.8 0-.8-1 0-.9-.5-1.4-1.1-1.1-.5.4-1.9-.3-3-1.6-1-1.2-1.9-1.8-1.9-1.3s-.7 0-1.5-1c-.8-1.1-1.5-1.7-1.5-1.3s-1.1 0-2.5-.9-2.2-2.1-1.8-2.7 0-.8-1-.4-1.6.2-1.4-.6c.1-.7-.4-1.1-1-1-.7.2-1.3-.2-1.3-.9 0-.6-.3-.8-.6-.5-1.1 1-4.5-1.3-3.8-2.5.5-.8.1-.9-1-.5-1 .4-1.9.1-2.2-.8-.4-.8-1.2-1.5-2-1.5-.7 0-1.9-.9-2.7-2s-1.6-1.8-1.9-1.5-1.1-.2-1.8-1.1c-1.2-1.3-1.1-1.7.1-2.5.8-.5.9-.9.4-.9-.6 0-1.6.5-2.2 1.1-.8.8-1.6.6-2.9-1-1-1.1-2.4-2.1-3.1-2.1s-1.3-.5-1.3-1.1c0-.5-.4-.8-.9-.4-.5.3-1.7-.5-2.5-1.7-.9-1.2-1.6-1.8-1.7-1.3 0 .6-.5-.1-1-1.4-.7-1.8-.6-2.7.3-3.3 1-.7.9-.8-.2-.5-.8.2-1.4 1.4-1.3 2.6.3 2.1.2 2.1-3.7-.5-2.2-1.5-3.7-3-3.4-3.5s-.3-.9-1.3-.9-2.5-.9-3.3-1.9c-.7-1.1-1.7-1.8-2-1.6-.9.6-7.1-4-6.4-4.7.3-.3-.9-1.1-2.6-1.7-2-.7-2.9-1.5-2.4-2.2.5-.9.2-1-.9-.6-1 .3-1.7.2-1.7-.4s-.4-.7-1-.4c-.5.3-1 .2-1-.3s-.9-1.2-2-1.5c-1.4-.4-1.8-1.1-1.4-2.4.4-1.4.4-1.5-.4-.4-.5.7-1.5 1-2.2.6-.9-.6-.9-1 .1-1.7 1-.6.7-.7-.8-.3-1.8.5-2.3.2-2.3-1.1 0-1-.3-1.4-.6-1.1-.8.8-6.4-2.4-6.4-3.5 0-.4-.6-.8-1.3-.8-.8 0-2.2-.9-3.3-2.1-1.6-1.7-1.6-2.2-.4-2.9.9-.6 1-1 .3-1-.6 0-1.5.5-1.8 1-.4.6-1.2.4-2.1-.5-.9-.8-2.2-1.5-2.9-1.5-.8 0-2-.9-2.8-2s-1.7-1.7-2.2-1.2c-.4.4-.5-.4-.2-1.7.3-1.4 0-2.9-.9-3.8-.8-.8-1.4-1-1.4-.4 0 .5.5 1.3 1 1.6 1.2.7.4 2.5-1.1 2.5-.5 0-.9-.8-.9-1.8 0-1.4-.2-1.5-1-.2-.9 1.3-1 1.3-1-.1 0-.8.4-1.9.9-2.5.6-.5.3-1.4-.6-2.3-1.3-1.2-1.4-1.1-.8.8.4 1.2.2 2.1-.4 2.1s-1.1-.6-1.2-1.3q0-1.35-.6 0c-.3.8-2.1.1-5.4-2.2-7.8-5.4-11-8.7-10.5-11 .3-1.1.1-2.7-.5-3.5-.8-1.1-.9-.9-.4 1q.75 2.55-.3 1.5c-1.6-1.5-2.5-11.2-1.1-12.1.6-.3 1.5 0 2 .7.4.7 1.1 1 1.6.6 1-1-1.8-2.8-3.5-2.2-1.4.5-1-2.5 1.5-9.3 1.8-5.2 3.7-6.3 8.7-5.2 3.4.7 4 .5 6.3-2.1 1.5-1.6 3.1-2.9 3.7-2.9.7 0 4.1 3.5 7.6 7.7m132.8 6c-4.6 7.7-3.3 26.8 2.4 36 1.2 2 1.5 3.3.8 3.3-.6 0-2.3-2.6-3.7-5.8-2.9-6.1-4.2-18-2.9-26.4.6-3.9 3.8-10.8 5.1-10.8.2 0-.5 1.7-1.7 3.7m137.1 23.5c-.5 1.8-.9 4.5-.9 6 0 3.3 1.7 2.7-25.5 7.8-21.8 4-28.9 5.8-23.5 5.9 4.6.2 39.6-6.1 47.8-8.5 1.6-.5 2.2-.2 2.2.9 0 .9-.8 1.8-1.7 2.1-1.7.5-26.7 6.4-87.3 20.7l-54.5 12.8c-15.9 3.8-29.5 6.6-30.2 6.4-1.6-.6-4.6-5.3-3.9-6 .3-.3 11.5-2.5 24.8-4.9 31.4-5.6 53.5-10 62.3-12.3 10.9-3 5.3-2.4-13.7 1.3-9.5 1.9-22.7 4.2-29.3 5.1s-19.5 3-28.7 4.7c-9.2 1.8-17.1 2.8-17.5 2.4-1.6-1.6-.8-12.1 1.3-15.6 1.8-3.2 2.3-3.4 6.2-3.2 2.8.3 5.3-.3 7.5-1.6 1.7-1.1 6.5-2.4 10.6-3 6.9-1 7.7-.9 10.4 1 1.5 1.1 2.5 2.4 2 2.8-.4.4-4.6 1.3-9.3 1.9-4.7.7-11.2 1.8-14.5 2.6l-6 1.3h5c2.8.1 10.5-.7 17.3-1.7 6.8-.9 12.5-1.4 12.7-1.1.3.4 4.8-.3 10.2-1.6s23.8-4.6 40.8-7.4c32.1-5.2 65.7-11.7 61.8-11.9-1.3-.1-11.6 1.5-23 3.5l-52.1 8.2c-.9-.2 8.1-3.1 19.9-6.5 17.2-5 26.7-7.1 48.4-10.7 34.1-5.5 31.6-5.4 30.4-1.4m18.3 7.9 10.2 5.1-3.3 1.4c-4.6 1.9-4.8 1.9-11.8-2.6-5-3.2-6.3-4.6-6.3-6.5 0-1.4.2-2.5.5-2.5s5.1 2.3 10.7 5.1m-119.5 11.5c-.3.3-1.2.4-1.9.1-.8-.3-.5-.6.6-.6 1.1-.1 1.7.2 1.3.5m129.8 7.7c-1 .7-3.2 2.4-4.7 3.9-1.5 1.4-4.5 3.2-6.5 3.9-7 2.2-35.7 13-45.6 17.1-16.2 6.7-10.2 5.4 8.9-2.1 19.8-7.6 39.4-14.5 39.9-13.9.2.2.6 4.1 1 8.8l.6 8.5-21.3 8.7-69.3 28.7-48 20-1.7-4.7c-3.5-9.8-5-8.5 24-19.8l77.5-31.1c-1.7-.6-30.5 9.8-50.3 18.2-17.2 7.3-51 20.5-52.5 20.5-.7 0-.6-5 .1-7.8.5-1.8 1.3-2.2 4.4-2.2 2.6 0 4.8-.8 6.7-2.3 1.5-1.3 25.8-11.4 53.8-22.5l67-26.5c15.6-6.3 20-7.8 16-5.4m-213.8 19.9c-.3.8-.6.5-.6-.6-.1-1.1.2-1.7.5-1.3.3.3.4 1.2.1 1.9m2.2 4.8c1.1 2.4 1.1 2.4-.3.6-.9-1.1-1.6-2.4-1.6-3 0-1.2.5-.7 1.9 2.4m4.2 5.7c1.3 1.6 1.2 1.7-.3.4-1.7-1.3-2.2-2.1-1.4-2.1.2 0 1 .8 1.7 1.7m54.6 45c-.3 1-.5.2-.5-1.7s.2-2.7.5-1.8c.2 1 .2 2.6 0 3.5m4.2 16.3c0 2.2-3-5.7-3.4-9.1-.5-3.8-.3-3.5 1.5 2.1zM90.5 94.9c1.3 2.2 21 14.6 68 42.8C226.1 178.3 243 188 246 188c2.2 0-.3-2.1-9.8-8.3-8.3-5.5-63.2-38.3-110.2-66-18.1-10.6-36.5-20.4-35.5-18.8"/><use href="#a"/><use href="#b"/><use href="#c"/><path d="M86 132.1c-1.2.9-1.2 1 .4.5 1.1-.4 2.3-.1 2.8.6.7 1 .9 1 .6-.1-.6-2-2-2.3-3.8-1"/><use href="#d"/><use href="#e"/><path d="M106.9 137.7c-.6 3.3-.3 6.3.4 6.3.5 0 .6-1.1.3-2.6-.6-2.3-.5-2.4 1.5-1.4 1.1.7 2.3.9 2.7.6.3-.3 0-.6-.6-.6s-1.8-.7-2.6-1.6c-.9-.8-1.7-1.2-1.7-.7"/><use href="#f"/><use href="#g"/><use href="#h"/><use href="#i"/><path d="M128.6 156.7c-.7 1.8 2.9 5.9 3.9 4.4.3-.5-.4-1.2-1.5-1.6-1.5-.5-1.9-1.2-1.5-2.6.8-2.3 0-2.6-.9-.2"/><use href="#j"/><use href="#k"/><use href="#l"/><use href="#m"/><use x="19" y="10" href="#i"/><use x="37" y="30" href="#e"/><path d="M155.9 167.2c-.6 1.5-.3 5.6.3 5.1.5-.2.6-1.3.3-2.4-.7-2 .9-2.7 1.8-.9.3.6.4.5.3-.2-.2-1.1-2.4-2.4-2.7-1.6"/><use x="27" y="9" href="#l"/><use x="16" y="17" href="#i"/><use x="37" y="30" href="#g"/><path d="M165 173c0 .5.9 1.4 2 2s2 .9 2 .8c0-.2-.9-1.1-2-2.1-1.1-.9-2-1.3-2-.7"/><use href="#n"/><use x="37" y="15" href="#l"/><use x="55" y="45" href="#d"/><use x="37" y="25" href="#i"/><use x="37" y="23" href="#j"/><path d="M171 181.3c0 .4.8 1.7 1.8 2.8 1.9 1.9 5.2 1.7 5.2-.3 0-.6-.6-.5-1.5.2-1.2 1-1.8.8-3.5-1.1-1-1.3-1.9-2-2-1.6"/><use x="37" y="30" href="#i"/><path d="M190.4 187.2c1 .6 2.2.6 2.6.2.5-.5-.3-1-1.8-1.1-2.2-.1-2.4 0-.8.9M175 190c0 1.1.2 2 .4 2s.6-.9.9-2 .1-2-.4-2-.9.9-.9 2"/><use x="105" y="62" href="#a"/><use href="#o"/><use x="105" y="61" href="#b"/><use x="70" y="48" href="#g"/><use x="55" y="30" href="#l"/><path d="M177.6 193.5c.4.8.8 1.5 1 1.5s.4-.7.4-1.5-.4-1.5-1-1.5c-.5 0-.7.7-.4 1.5m11.9 1.3c.6.4 1 1.3 1.1 1.9.2 2.6.4 3.1 1.7 3.6 1.8.7 1.6-4.1-.3-5.3-1.8-1.2-4-1.3-2.5-.2m3.5 2.2c0 .5-.4 1-1 1a1.08 1.08 0 0 1-1-1c0-.6.5-1 1-1a.94.94 0 0 1 1 1m17.5 1c-.7 1.1.2 3 1.3 3 .4 0 1.4-.5 2.2-1 1.3-.9 1.3-1.1 0-2-1.9-1.2-2.7-1.2-3.5 0m2.5 1c0 .5-.4 1-1 1a1.08 1.08 0 0 1-1-1c0-.6.5-1 1-1a.94.94 0 0 1 1 1"/><use href="#p"/><use x="58" y="48" href="#i"/><use x="112" y="76" href="#b"/><use x="108" y="70" href="#e"/><use x="118" y="73" href="#d"/><use x="90" y="51" href="#i"/><use x="92" y="45" href="#l"/><use x="71" y="46" href="#m"/><path d="M205 207.9c0 .5.7 1.2 1.6 1.5 2.4.9 2.7.7 1-.9-1.7-1.7-2.6-1.9-2.6-.6"/><use x="123" y="79" href="#c"/><use href="#q"/><path d="M227.4 211.1c-1 1.7 1.3 3.6 2.7 2.2 1.2-1.2.4-3.3-1.1-3.3-.5 0-1.2.5-1.6 1.1m2.6.9c0 .5-.4 1-1 1a1.08 1.08 0 0 1-1-1c0-.6.5-1 1-1a.94.94 0 0 1 1 1"/><use x="78" y="51" href="#l"/><use x="76" y="53" href="#l"/><use x="92" y="60" href="#i"/><use x="80" y="55" href="#m"/><use x="97" y="64" href="#i"/><use x="81" y="58" href="#l"/><use x="90" y="66" href="#i"/><use x="92" y="60" href="#l"/><use x="126" y="91" href="#c"/><path d="M233.2 223c0 1.4.2 1.9.5 1.2.2-.6.2-1.8 0-2.5-.3-.6-.5-.1-.5 1.3"/><use x="-53" y="13" href="#l"/><use x="1" y="47" href="#b"/><use x="-44" y="23" href="#i"/><path d="M92.1 177.5c-.2 2.4 1.4 3.3 2.9 1.7 1.3-1.4 1.2-1.5-.2-.9-.9.3-1.9.1-2.2-.6-.2-.7-.5-.8-.5-.2"/><use x="-58" y="7" href="#n"/><path d="M119.6 192.6c-.4.9-.4 1.9-.1 2.2s.5 0 .5-.6c0-.7.5-1.2 1.1-1.2s.8.9.4 2.2c-.5 1.9-.4 2 .5.6 1-1.7.4-4.8-1-4.8-.4 0-1.1.7-1.4 1.6"/><use x="-8" y="38" href="#j"/><use href="#r"/><use href="#s"/><path d="M137.5 198c.3.6.1 1-.6 1s-1 .3-.6.6c.3.3 1.3.2 2.2-.4 1.6-.8 1.6-.9.1-1.5-1-.4-1.5-.3-1.1.3m5.6 2.7c-.1.6-.4 2-.7 3-.5 1.7-.5 1.7.6 0 .6-1 .9-2.3.6-3-.3-.9-.5-.9-.5 0"/><use href="#t"/><path d="M152.5 205.7c.7 2.4-.9 3.3-1.8 1q-.6-1.35-.6 0c-.1 1.7 1.9 2.7 3.1 1.5.7-.7.6-1.6-.1-2.9-1.1-1.6-1.1-1.6-.6.4"/><use x="14" y="53" href="#i"/><path d="M160 210.5c0 .6 1 1.9 2.2 2.9 1.7 1.5 2 1.5 1.5.3-.3-.9-.3-1.8.1-2s.1-.2-.7 0-1.8-.2-2.3-.9c-.4-.7-.8-.8-.8-.3"/><use x="50" y="68" href="#h"/><use x="34" y="58" href="#l"/><use x="32" y="60" href="#m"/><use href="#u"/><use href="#v"/><use x="65" y="75" href="#i"/><use x="71" y="31" href="#s"/><use x="64" y="70" href="#m"/><use x="67" y="77" href="#j"/><use x="32" y="12" href="#u"/><use x="125" y="109" href="#b"/><use x="93" y="78" href="#l"/><use x="88" y="81" href="#m"/><path d="M226 243.1c-1.3.9-1.2 1 .2.5 1-.3 2-.1 2.3.4.4.6.1 1-.6 1s-1 .2-.7.5 1.2.3 2.1-.1c1.4-.5 1.4-.8.2-2-1.6-1.7-1.6-1.7-3.5-.3"/><use href="#w"/><use x="-2" y="2" href="#w"/><use x="94" y="93" href="#j"/><path d="M248.4 250.2c-.5.7-.2.9.8.5.9-.3 2.1 0 2.7.6.8.8 1.1.8 1.1 0 0-.6-.7-1.4-1.6-1.7-2.1-.8-2.2-.8-3 .6m-8.9.7c.4.8.2 1.7-.6 2.2-.9.6-1 .9-.2.9 1.9 0 2.7-2.1 1.3-3.3-1-.9-1.1-.9-.5.2"/><use x="161" y="121" href="#d"/><path d="M252 254c1.2.8 1 1-.9 1-1.3 0-2.2.3-1.8.6.3.4 1.8.3 3.4 0 2.1-.6 2.4-.9 1.2-1.7-.7-.5-1.8-.9-2.4-.9-.5 0-.3.5.5 1"/><use x="125" y="104" href="#i"/><use href="#x"/><path d="M262.7 261.4c2 2.6 2.7 2.8 1.7.3-.3-.8-1.2-1.8-2-2.1-1.1-.4-1 0 .3 1.8"/><use x="176" y="131" href="#b"/><path d="M272.4 260.1c-.3.6-.1 1.6.6 2.2 1 .9 1.1.9.5-.2-.4-.8-.2-1.7.6-2.2.9-.6 1-.9.2-.9-.6 0-1.5.5-1.9 1.1"/><use x="80" y="42" href="#u"/><use x="138" y="110" href="#i"/><path d="M368.6 188 286 206c-19.8 4.4-27.9 6.7-24 6.9 3.9.1 17.9-2.5 48.4-9 27.2-5.9 75.6-17.5 76.5-18.4 1-1-5-.2-18.3 2.5M68.3 204.8c-.1 2.2 0 2.4.9.8.6-1 .6-2.2.2-2.6-.5-.5-1 .3-1.1 1.8m2.1 4.1c0 1.1.5 1.7 1 1.4.5-.4.7.1.3 1.1s-.3 1.5.3 1.1c1.3-.8 1.3-1.8-.3-3.9-1.2-1.6-1.3-1.6-1.3.3"/><use x="-31" y="79" href="#d"/><path d="m76 210.9-2.5.7 2.6.5c1.7.4 2.6.1 2.6-.8 0-.7-.1-1.3-.1-1.2-.1.1-1.2.4-2.6.8"/><use href="#y"/><path d="M82.9 217.2c-.1.7-.1 1.9 0 2.5.1.8-.5 1-1.6.6-1.5-.6-1.6-.5-.3.9.8.9 1.7 1.4 1.9 1.2.6-.5 1.1-6.4.6-6.4-.3 0-.6.6-.6 1.2m9.6 5.9c-.4.5-.4 1.3-.1 1.6.3.4.6 0 .6-.8 0-1.1.2-1.1 1 .1.6.9 1 1 1 .3 0-1.7-1.7-2.5-2.5-1.2m-1 3.8c-.3.6.4 1.5 1.5 2.1 1.3.7 2 .7 2 0 0-.5-.8-1-1.7-1.1-1.5 0-1.5-.2.2-.9 1.6-.7 1.7-.9.3-.9-.9-.1-1.9.3-2.3.8"/><use x="-12" y="84" href="#g"/><path d="M102.7 231.6c-.3.3-.3 1.2 0 2 .7 1.9-1.2 1.8-3.1-.2-.9-.8-1.6-1.1-1.6-.5 0 1.4 3.8 3.3 5.1 2.5.6-.3.8-1.2.5-1.9-.3-.8 0-1.6.7-1.9s.8-.5.1-.5c-.6-.1-1.3.2-1.7.5"/><use x="17" y="18" href="#y"/><use x="30" y="20" href="#y"/><path d="M106.6 238.6c-.3.9-.4 1.9-.1 2.2s.5-.1.5-.9c0-1.1.2-1.1 1 .1.5.8 1 1 1 .5 0-.6-.4-1.6-.9-2.3-.6-1.1-1-1-1.5.4m5 1.2c-.3.4.4.9 1.5.9 2.3.2 2.5-.3.4-1-.8-.4-1.6-.3-1.9.1"/><use href="#z"/><path d="M114.3 243.4c-1 1.1-.9 1.5.4 2 .9.4 1.8.4 2.1.1s0-.5-.6-.5-.9-.7-.6-1.5c.7-1.8.3-1.9-1.3-.1"/><use x="19" y="117" href="#b"/><use x="10" y="104" href="#g"/><path d="M126 249.1c0 .6-.7.9-1.5.5-.8-.3-1.5-.2-1.5.3s.8 1.1 1.8 1.3c1.2.4 1.8-.1 1.9-1.3.1-1.1 0-1.9-.3-1.9-.2 0-.4.5-.4 1.1m11.3 11.1c-.1 1.1.1 1.6.5 1.2.4-.5 1.1-1.2 1.5-1.5.5-.3.2-.9-.5-1.2-.9-.3-1.4.3-1.5 1.5"/><use x="1" y="108" href="#i"/><use href="#A"/><path d="M154 267.8c0 .7-.7.9-1.7.5-1.5-.6-1.6-.5-.3.9s1.6 1.4 2.3.1c.5-.8.6-1.7.3-2-.3-.4-.6-.1-.6.5m.6 3.4c-1.7 1.9-1.7 2-.1 1.4 1.3-.5 1.6-.2 1.1 1.1-.4 1-.4 1.5-.1 1.1.3-.3 2.8.2 5.6 1.2 2.7 1 4.9 1.4 4.9.9s-.7-.9-1.6-.9c-.8 0-1.3-.4-1-.9.3-.4-.5-.6-1.8-.4-2.6.5-6-2.3-5.2-4.3.7-1.9.3-1.8-1.8.8"/><use x="15" y="117" href="#i"/><path d="M158.3 280.5c.7.5 1.9 1.9 2.6 3l1.3 2-.7-2c-.4-1.1-.8-2.5-.8-3 0-.6-.9-1.1-1.9-1.1-1.6 0-1.7.2-.5 1.1"/><use x="85" y="64" href="#y"/><use x="57" y="139" href="#g"/><use x="95" y="66" href="#y"/><path d="M164.6 284.8c-.2.4.4.8 1.4.8s1.6-.4 1.4-.8c-.3-.4-.9-.8-1.4-.8s-1.1.4-1.4.8m4.1 2.5c-.3.8.1 1.4.8 1.4s1.1-.6.8-1.4c-.3-.7-.6-1.3-.8-1.3s-.5.6-.8 1.3"/><use x="71" y="48" href="#z"/><path d="M176.8 292.2c.5.5 1.6.8 2.3.6.8-.3.3-.7-1-1.1-1.7-.4-2.1-.3-1.3.5"/><use href="#aa"/><path d="M187.7 295.6c-.3.3-.3 1.2-.1 1.9.4 1-.4 1.3-3 1.1-1.9-.2-3.3 0-3.1.5.3.4 2.1.6 4 .5 1.9-.2 3.5.1 3.5.7s.3.8.6.5c.3-.4.1-1.5-.5-2.6-.8-1.5-.8-2.2.2-2.5.7-.3.7-.6.1-.6-.6-.1-1.3.2-1.7.5m6.6 11.9c0 .8.4 1.2.9.9s.6-1 .3-1.5c-.9-1.3-1.2-1.1-1.2.6"/><use x="67" y="155" href="#i"/><use x="57" y="48" href="#A"/><path d="m419 212.4-41 14.8-49.5 17.8c-20.1 7-29.1 10.7-28.2 11.6 1.1 1.1 14.2-3.4 64.7-22.2 51.4-19 67.6-25.3 65-25.3-.8 0-5.8 1.5-11 3.3m1.5 6.8c-9.6 3.3-96.7 35.1-110.8 40.4-21.3 8.2-12.5 6 14.4-3.5 59.1-20.8 101.5-36.6 102.4-38.2.4-.5.5-.9.3-.8-.2 0-3 1-6.3 2.1M67 230.6c0 .6.7 1.9 1.6 3 1.4 1.8 1.4 1.8.3-.6-1.4-3.1-1.9-3.6-1.9-2.4"/><use x="-77" y="30" href="#t"/><use x="-115" y="48" href="#o"/><use x="-103" y="14" href="#v"/><use x="-5" y="24" href="#y"/><path d="M72 241.6c0 1.3 1.8 3.9 2.4 3.4.2-.3-.2-1.4-1-2.4-.8-1.1-1.4-1.6-1.4-1"/><use x="-167" y="-2" href="#w"/><path d="M79 244.5c0 .5.4 1.6.9 2.3.6 1.1 1 1 1.5-.4.3-.9.4-1.9.1-2.2s-.5.1-.5.9c0 1.1-.2 1.1-1-.1-.5-.8-1-1.1-1-.5m6.5 4c-1.8 1.9-1.9 2.3-.6 3.5s1.4 1.2.8-.3c-.3-.9-.2-1.7.2-1.7.8 0 2.5-3.1 1.9-3.4-.2-.1-1.2.8-2.3 1.9m-14.8-.8c-.4.3-.7 1.1-.7 1.7s.4.5.9-.2c1.1-1.8 7.8 1.4 8.7 4.1.3 1 .8 1.6 1.1 1.4.2-.3 0-1.4-.6-2.5s-.8-2.2-.3-2.5c.4-.2.1-.2-.6 0-.7.1-2.6-.4-4.2-1.2-3.3-1.7-3.4-1.7-4.3-.8m17.2 2.5c-.1.2-.2 1.8-.4 3.7-.2 2.6-.1 3.1.7 1.8.5-1 .6-2.2.2-2.8-.3-.6 0-1.5.7-2 1-.6 1.1-.9.2-.9-.7 0-1.3.1-1.4.2"/><use x="-41" y="99" href="#i"/><use x="-6" y="129" href="#a"/><path d="M95 257a1.08 1.08 0 0 0 1 1c.6 0 1-.5 1-1a.94.94 0 0 0-1-1c-.5 0-1 .4-1 1"/><use x="-63" y="99" href="#m"/><path d="M98 261c0 .5-1 1-2.2 1.1-1.5.1-1 .5 1.5 1.1 4.3 1.1 6.2.2 4.6-2.2-.9-1.3-1-1.2-.5.2.4 1.3 0 1.8-1.6 1.8-1.7 0-1.8-.2-.8-1.5.9-1 .9-1.5.1-1.5-.6 0-1.1.4-1.1 1"/><use x="-41" y="110" href="#i"/><use href="#ab"/><use x="-22" y="111" href="#k"/><path d="M87.7 268.7c-.3.5.6.9 2 1 1.9.1 2.2-.1 1.2-.8-1.7-1.1-2.6-1.1-3.2-.2"/><use x="-46" y="108" href="#m"/><use x="-127" y="60" href="#q"/><use x="-33" y="111" href="#l"/><path d="M105.6 273.7c-.4.9-.1 2.1.5 2.7.9.8 1 .7.4-.3-.4-.7-.2-1.6.5-2.1.8-.5.8-1 .2-1.4-.5-.3-1.3.2-1.6 1.1"/><use x="-36" y="121" href="#i"/><path d="M97.2 278.9c-.9.5-.5 1.1 1.3 1.9 3.6 1.7 4.5 1.4 1.5-.3-2.5-1.5-2.4-1.5 1.5-1.1 3.4.3 4 .7 4 2.6 0 1.3.7 2.5 1.5 2.7 1.2.4 1.3.3.1-.5-.7-.5-1.1-1.4-.7-2 1.3-2.1-.5-3.8-4.2-3.9-2.1-.1-4.3.2-5 .6m13.3 2c.5 1.4.2 2.6-.5 3.1-.9.6-.8 1.4.4 3.6.8 1.6 1.5 2.5 1.6 2.1 0-.5-.5-1.7-1-2.8-.7-1.3-.7-1.9 0-1.9 1.3 0 1.3-3.1-.1-5-.8-1.2-.9-1-.4.9"/><use y="17" href="#ab"/><path d="M103.4 286.1c-.3.6-.2 1.5.3 2s.9.1.9-1.1c0-2.3-.2-2.4-1.2-.9m9.7-.2c-1 .7-.7.9 1.2.8 1.4-.1 2.3-.5 2-1-.6-.9-1.5-.9-3.2.2"/><use x="-16" y="126" href="#l"/><use x="-120" y="44" href="#w"/><use x="25" y="164" href="#a"/><use x="26" y="76" href="#y"/><path d="M119.7 292.6c-.4.4-.7 1.2-.7 1.8s.5.4 1-.4c.9-1.3 1.1-1.3 2.1 0 .9 1.2 1 1.2.7.1-.5-1.7-2.1-2.5-3.1-1.5"/><use x="-20" y="146" href="#i"/><use x="-63" y="6" href="#aa"/><use x="-14" y="142" href="#l"/><use x="-16" y="152" href="#j"/><use x="-16" y="151" href="#m"/><path d="M132.3 314.6c0 1.4.2 2.1.6 1.7.3-.4.9-1 1.2-1.3.4-.3.1-1-.6-1.7-1-.9-1.2-.6-1.2 1.3"/><use x="-14" y="157" href="#m"/><path d="M134.4 321.1c-.5.8-.3.9.6.4.7-.4 1.6-.2 2.2.6.8 1.2.9 1.2.6 0-.6-2-2.4-2.5-3.4-1"/><use x="1" y="160" href="#m"/><path d="M139.6 322.6c-.9.8-1.6 2-1.6 2.5 0 .6.8.2 1.7-.8 1-1 2.2-2.1 2.8-2.5.6-.5.6-.8-.2-.8-.6 0-1.9.7-2.7 1.6"/><use x="38" y="181" href="#g"/><path d="M135.3 327.5c-1 1.1-.9 1.3.6 1.2 1.1-.1 1.7-.7 1.4-1.4-.6-1.6-.5-1.6-2 .2m9.1 3.3c-.9.5-.8 1 .1 1.9 1.1 1 1.3.9 1.2-.7l-.2-2z"/><use x="56" y="202" href="#b"/><path d="M151 330.4c0 .4.6 1.4 1.4 2.1 1.2 1.2 1.5 1.2 2.1-.2.3-1 .3-1.4-.1-1s-1.3.2-2.1-.4c-.7-.6-1.3-.8-1.3-.5m-10.9 2.3c-.7.8-1.1 1.6-.8 1.9.2.2 1-.2 1.7-1.1 1.7-2 .9-2.7-.9-.8m2.3 1.7c-.4.9-.4 2 0 2.3.3.4.6.1.6-.5s.8-.9 1.8-.6c1 .4 1.3.2.7-.3a13.7 13.7 0 0 1-1.7-1.7c-.4-.5-1-.1-1.4.8m7.6-.5c0 1.3 3.9 3.5 4.8 2.7.3-.3 0-.6-.6-.6s-1.8-.7-2.6-1.6c-.9-.8-1.6-1.1-1.6-.5m6 2.8c.1.5.8 1.9 1.6 3.3 1 1.7 1.3 1.8.8.5-.3-1.1-.7-2.6-.7-3.3 0-.6-.4-1.2-.9-1.2-.4 0-.8.3-.8.7m-7 1.7c0 .4.7 1.4 1.5 2.2.8.9 1.5 1.1 1.5.6s-.7-1.5-1.5-2.2-1.5-.9-1.5-.6"/><use x="-25" y="118" href="#v"/><use x="72" y="216" href="#a"/><path d="M149.7 343.6c.7.3.9 1.3.6 2.2-.4 1.5-.3 1.5.6.2 1-1.3 1.2-1.3 2.1 0 .6.9 1 1.1 1 .3 0-1.2-3.1-3.4-4.7-3.2-.4 0-.3.3.4.5"/><use x="-73" y="143" href="#l"/><path d="M80.7 307.6c.3.7 0 1.4-.6 1.4s-1.1-.5-1.1-1.2c0-.6-.3-.8-.6-.5-.4.4-.1 1.3.6 2.1 1 1.3 1.4 1.3 2.6.1 1.8-1.7 1.8-2.2 0-2.8q-1.5-.6-.9.9m-9.6-.2c.2.2 1.8.6 3.4 1 2.2.5 2.6.4 1.5-.4-1.4-.9-5.9-1.5-4.9-.6m12.9 1.5c0 .5.4 1.2 1 1.6.5.3.7 1.3.4 2.3-.5 1.5-.4 1.5.6-.1.9-1.3.8-2.1-.4-3.3-.9-.8-1.6-1.1-1.6-.5"/><use x="-60" y="156" href="#i"/><path d="M66.8 312.1c-1.7 1.8-1.7 1.9.2 1.9 1.3 0 2-.7 2-2 0-2.4 0-2.4-2.2.1"/><use x="-62" y="155" href="#j"/><path d="M70.8 311.6c-.8.7 2.3 4.4 3.7 4.4.6 0 .6-.3-.1-.8-.6-.4-1.5-1.5-2-2.5-.6-1-1.3-1.5-1.6-1.1"/><use x="-55" y="151" href="#m"/><use x="-51" y="153" href="#l"/><path d="M69 314.6c0 .3.7 1.2 1.5 2 1.6 1.7 1.8 1.4.9-1-.6-1.5-2.4-2.3-2.4-1"/><use x="-178" y="55" href="#x"/><path d="M91 317.9c0 .5.7 1.2 1.6 1.5 1.4.5 1.5.4.4-.9-1.4-1.7-2-1.9-2-.6m-12.8 2.7c-1.2 1.3-1.9 2.4-1.4 2.4 1.1 0 4.7-3.9 4.1-4.4-.2-.2-1.4.7-2.7 2m18.3-.6c-.3.5-.3 1.5.1 2.1.3.6 0 1.6-.7 2.1-1.2.8-1.1.9.1.5.8-.2 1.4-1.3 1.3-2.3s.4-2.2 1-2.6c.9-.6.9-.8 0-.8-.6 0-1.5.4-1.8 1"/><use x="-30" y="180" href="#f"/><use x="8" y="192" href="#c"/><use x="-114" y="126" href="#p"/><path d="M97 327.1c0 .6-.9.8-2.2.3-2-.6-2-.4.5 1.6 1.5 1.2 3.1 2 3.4 1.6.4-.3.1-.6-.6-.6-.8 0-1-.7-.6-2 .3-1.1.4-2 .1-2s-.6.5-.6 1.1m8.5.6c-.3 1-.1 1.9.4 2.1.6.2.9.7.7 1.1-.3.4 1 1.4 2.9 2.3 1.9.8 3.2 1.1 2.8.6-.3-.6.1-1.4.8-1.9.9-.6.4-.7-1.4-.3-3 .7-5.9-1.8-5-4.3.3-.7.3-1.3 0-1.3s-.8.8-1.2 1.7"/><use x="14" y="201" href="#a"/><use x="-55" y="168" href="#m"/><use x="-41" y="172" href="#l"/><use x="-23" y="182" href="#i"/><path d="M112.3 338.5c-.9 1-.6 1.2 1.4 1.2 1.4 0 2.1-.2 1.7-.6-.5-.3-1.1-.9-1.4-1.3-.3-.3-1 0-1.7.7"/><use x="-38" y="178" href="#m"/><use x="-23" y="188" href="#i"/><path d="M113.3 344c0 2.3.3 2.8.9 1.6.5-.9.5-2.3 0-3.2-.6-1.2-.9-.7-.9 1.6m8.9-2.2c-.9.6-.5 1.2 1.4 2.1 1.5.6 2.9 1 3.1.7.2-.2-.5-.7-1.8-1.1-1.7-.6-1.9-.9-.8-1.6.8-.5 1-.9.4-.9-.5 0-1.6.4-2.3.8"/><use x="29" y="210" href="#d"/><path d="M119.6 344.2c.4 2 .2 2.7-1.3 3.1s-1.4.5.5.6c2.4.1 3-2.2 1.2-4.9-.8-1.1-.9-.8-.4 1.2"/><use x="-10" y="189" href="#j"/><use x="-2" y="151" href="#r"/><use x="27" y="218" href="#c"/><use x="-126" y="89" href="#x"/><use x="38" y="217" href="#d"/><use x="34" y="210" href="#f"/><path d="M130.1 354.7c-2.2 2.3-2.2 2.5-.4 1.9 2.4-.8 3.6 1.4 2.6 4.1-.7 1.7-.6 1.7 1.1 0 1.6-1.5 1.6-1.8.2-3.3-1.9-1.9-2-3.1-.4-3.6.7-.3.8-.7.3-1-.6-.3-2.1.6-3.4 1.9"/><use x="40" y="225" href="#c"/><path d="M148.4 361c.1 2 .7 3.5 1.6 3.8 1.2.3 1.3.2.1-.6-.7-.5-1-1.5-.7-2.1.4-.6.3-1.8-.2-2.8-.8-1.3-.9-.9-.8 1.7m-7.8.6c-.3.9-.2 2.2.2 3.1.6 1 .9.5.9-1.6 0-3.5-.2-3.8-1.1-1.5"/><use x="49" y="235" href="#a"/><use x="42" y="220" href="#f"/><use href="#ac"/><use x="11" y="206" href="#m"/><use x="57" y="237" href="#c"/><use x="12" y="216" href="#i"/><use x="29" y="222" href="#i"/><path d="M181.9 389.4c-1.5 1-1.5 1.4-.2 3.1 1.5 1.9 1.5 1.9.8-.3-.4-1.3-.2-2.2.4-2.2s1.1.5 1.1 1.2c0 .6.3.9.6.5.3-.3.2-1.2-.3-2-.6-1.2-1.1-1.3-2.4-.3"/><use x="92" y="259" href="#c"/><path d="M185.2 393.2c-.7.7-1.2 1.6-1.2 2.1s.7.1 1.6-.8 1.4-1.8 1.2-2c-.2-.3-1 .1-1.6.7"/><use x="101" y="269" href="#a"/><use x="53" y="238" href="#l"/><use x="102" y="271" href="#b"/><use x="52" y="34" href="#ac"/><use x="23" y="179" href="#u"/><use x="64" y="250" href="#i"/><path d="M209 407.1c0 .5.5.7 1 .4.6-.3 1-.8 1-1.1 0-.2-.4-.4-1-.4-.5 0-1 .5-1 1.1"/><use x="34" y="185" href="#u"/><use x="81" y="256" href="#i"/><path d="M217.3 412c0 2.4.2 2.6 1.4 1.4s1.2-1.6 0-2.8-1.4-1-1.4 1.4"/><use x="85" y="219" href="#r"/><use x="-39" y="157" href="#x"/><path d="M350.5 374.9c-30.3 11.4-91.9 37-91.2 37.8.5.4 12.5-4.2 45.7-17.7l46.3-18.4c10.8-4.3 19.7-8 19.7-8.2 0-1-3.7.1-20.5 6.5"/><defs><path id="a" d="M88.6 127.5c-.9 2.6-.7 3.2.5 1.2.6-1 .9-2.1.6-2.3-.2-.3-.7.2-1.1 1.1"/><path id="b" d="M91 128.4c0 .2.7.7 1.6 1 .8.3 1.2.2.9-.4-.6-1-2.5-1.4-2.5-.6"/><path id="c" d="M94.5 131c-.3.5-.1 1 .4 1 .6 0 1.1-.5 1.1-1 0-.6-.2-1-.4-1-.3 0-.8.4-1.1 1"/><path id="d" d="M97.7 132.1c.7.7 1.5 1 1.8.7s-.2-.9-1.2-1.2c-1.4-.6-1.5-.5-.6.5"/><path id="e" d="M100 135c-.8.5-1 1-.5 1 .6 0 1.7-.5 2.5-1s1.1-1 .5-1c-.5 0-1.7.5-2.5 1"/><path id="f" d="M103.5 142c.3.5.8 1 1.1 1 .2 0 .4-.5.4-1 0-.6-.5-1-1.1-1-.5 0-.7.4-.4 1"/><path id="g" d="M110 142.9c0 .6.4 1.3 1 1.6s.7-.1.4-.9c-.7-1.8-1.4-2.1-1.4-.7"/><path id="h" d="M116.2 145.5c-.7.9-.8 1.5-.2 1.5.5 0 1 .5 1 1.1s-.9.8-2.2.4c-2-.5-2.1-.4-.5.5 2.3 1.5 3.5.6 3.5-2.5 0-1.4-.1-2.5-.2-2.5 0 .1-.7.7-1.4 1.5"/><path id="i" d="M132 154c.8.5 2 1 2.5 1 .6 0 .3-.5-.5-1s-1.9-1-2.5-1c-.5 0-.3.5.5 1"/><path id="j" d="M137.2 156.6c-.7.8-.8 1.4-.3 1.4 1 0 2.5-1.9 2-2.5-.2-.1-1 .3-1.7 1.1"/><path id="k" d="M125.6 157.7c-.6 1.4-.5 1.5.5.6.7-.7 1-1.5.7-1.8s-.9.2-1.2 1.2"/><path id="l" d="M134 160.9c0 1 1.9 2.5 2.5 2 .1-.2-.3-1-1.1-1.7s-1.4-.8-1.4-.3"/><path id="m" d="M143 160.5c0 .5.5 1.7 1 2.5s1 1 1 .5c0-.6-.5-1.7-1-2.5s-1-1.1-1-.5"/><path id="n" d="M160.3 173.6c-.8.4-.7 1.1.5 2.5.9 1 2 1.9 2.5 1.9s.1-.7-.8-1.6c-1.3-1.4-1.4-1.9-.3-2.5 1.4-.9.1-1.1-1.9-.3"/><path id="o" d="M183.2 189.8q-1.2.9 1.8.9c3 0 2.6-.3 1.8-.9-.7-.4-1.5-.8-1.8-.8s-1.1.4-1.8.8"/><path id="p" d="M201.2 198.9c-1.1.6-1 1 .4 1.5.9.3 1.9.4 2.2.1s-.1-.5-.9-.5c-1.1 0-1.1-.2.1-1 .8-.5 1.1-1 .5-1-.5 0-1.6.4-2.3.9"/><path id="q" d="M220.5 210.1c-1.1 1.6-.1 1.9 1.3.3.7-.8.8-1.4.3-1.4s-1.3.5-1.6 1.1"/><path id="r" d="M125.7 197c1 1.1 2.1 2 2.5 2s0-.9-.9-2c-1-1.1-2.1-2-2.5-2s0 .9.9 2"/><path id="s" d="M130.5 198c-.3.6.1.7.9.4 1.8-.7 2.1-1.4.7-1.4-.6 0-1.3.4-1.6 1"/><path id="t" d="M149 204c-.9.6-1 1-.3 1 .6 0 1.5-.5 1.8-1 .8-1.2.4-1.2-1.5 0"/><path id="u" d="M178 222c0 .5.5 1 1.1 1 .5 0 .7-.5.4-1-.3-.6-.8-1-1.1-1-.2 0-.4.4-.4 1"/><path id="v" d="M178.8 224.7c.6.2 1.8.2 2.5 0 .6-.3.1-.5-1.3-.5s-1.9.2-1.2.5"/><path id="w" d="M237.2 246.4c.7.8 1.5 1.2 1.7 1.1.5-.6-1-2.5-2-2.5-.5 0-.4.6.3 1.4"/><path id="x" d="M254.5 260c-.8 1.3.3 3 1.8 3 .7 0 .6-.4-.3-1-1.3-.9-1.3-1.1 0-2 .9-.6 1-1 .3-1-.6 0-1.5.4-1.8 1"/><path id="y" d="M79.6 217.3c.3 1 .9 1.5 1.2 1.2s0-1.1-.7-1.8c-1-.9-1.1-.8-.5.6"/><path id="z" d="M107 242.4c0 .2.9.6 2 .9s1.8.1 1.4-.4c-.5-.9-3.4-1.3-3.4-.5"/><path id="A" d="M139 261.2c0 .2.9 1.1 2 2.1 1.1.9 2 1.3 2 .7 0-.5-.9-1.4-2-2s-2-.9-2-.8"/><path id="aa" d="M180.5 294.1c-.4.6-.4 1.3-.1 1.6.3.4.6.1.6-.6 0-.8.6-1.1 1.6-.7.8.3 1.2.2.9-.4-.8-1.3-2.2-1.3-3 .1"/><path id="ab" d="M98 265.3c0 1.6 2.1 4.7 3.3 4.7.8 0 .9-.3.1-.8-.6-.4-1.6-1.6-2.2-2.7s-1.2-1.6-1.2-1.2"/><path id="ac" d="M146 366c-.8.5-1.2 1.2-.9 1.5.4.3 1.2-.1 1.9-1 1.4-1.7 1.1-1.9-1-.5"/></defs></svg>